<svg width="112" height="16" fill="none" xmlns="http://www.w3.org/2000/svg"><path d="M9.173 3.6V12h-.876V8.124H3.041V12h-.888V3.6h.888v3.744h5.256V3.6h.876Zm4.374.768h-2.952V3.6h6.792v.768h-2.952V12h-.888V4.368ZM27.529 3.6V12h-.852V5.28l-3.3 5.652h-.42l-3.3-5.616V12h-.852V3.6h.733l3.648 6.228L26.797 3.6h.732Zm2.737 0h.888v7.632h4.704V12h-5.592V3.6Zm15.476 6.156h-4.68L40.053 12h-.925l3.84-8.4h.877l3.84 8.4h-.937l-1.008-2.244Zm-.325-.72-2.016-4.512-2.016 4.512h4.032Zm6.035 3.024a3.436 3.436 0 0 1-1.68-.408 2.976 2.976 0 0 1-1.152-1.14 3.333 3.333 0 0 1-.42-1.668c0-.616.14-1.168.42-1.656.28-.488.664-.868 1.152-1.14a3.436 3.436 0 0 1 1.68-.408c.544 0 1.028.108 1.452.324.432.208.772.516 1.02.924l-.636.432a1.945 1.945 0 0 0-.792-.696c-.32-.16-.668-.24-1.044-.24-.456 0-.868.104-1.236.312-.36.2-.644.488-.852.864-.2.376-.3.804-.3 1.284 0 .488.1.92.3 1.296.208.368.492.656.852.864.368.2.78.3 1.236.3.376 0 .724-.076 1.044-.228.32-.152.584-.384.792-.696l.636.432c-.248.408-.588.72-1.02.936a3.304 3.304 0 0 1-1.452.312Zm6.354-6.42c.824 0 1.456.208 1.896.624.44.408.66 1.016.66 1.824V12h-.816v-.984a1.947 1.947 0 0 1-.852.768c-.368.184-.808.276-1.32.276-.704 0-1.264-.168-1.68-.504-.416-.336-.624-.78-.624-1.332 0-.536.192-.968.576-1.296.392-.328 1.012-.492 1.86-.492h2.004v-.384c0-.544-.152-.956-.456-1.236-.304-.288-.748-.432-1.332-.432-.4 0-.784.068-1.152.204a2.822 2.822 0 0 0-.948.54l-.384-.636c.32-.272.704-.48 1.152-.624.448-.152.92-.228 1.416-.228Zm-.3 5.748c.48 0 .892-.108 1.236-.324.344-.224.6-.544.768-.96V9.072h-1.98c-1.08 0-1.62.376-1.62 1.128 0 .368.14.66.42.876.28.208.672.312 1.176.312ZM68.46 3.096V12h-.816v-1.248a2.587 2.587 0 0 1-1.02.972 2.939 2.939 0 0 1-1.416.336 3.204 3.204 0 0 1-1.608-.408 2.916 2.916 0 0 1-1.128-1.14c-.272-.488-.408-1.044-.408-1.668 0-.624.136-1.18.408-1.668A2.834 2.834 0 0 1 63.6 6.048a3.204 3.204 0 0 1 1.608-.408c.512 0 .972.108 1.38.324a2.57 2.57 0 0 1 1.02.924V3.096h.852Zm-3.18 8.208c.44 0 .836-.1 1.188-.3.36-.208.64-.5.84-.876.208-.376.312-.804.312-1.284s-.104-.908-.312-1.284c-.2-.376-.48-.664-.84-.864a2.29 2.29 0 0 0-1.188-.312c-.448 0-.852.104-1.212.312-.352.2-.632.488-.84.864-.2.376-.3.804-.3 1.284s.1.908.3 1.284c.208.376.488.668.84.876.36.2.764.3 1.212.3Zm11.049-2.196h-5.28c.047.656.3 1.188.755 1.596.456.4 1.032.6 1.728.6.392 0 .752-.068 1.08-.204.329-.144.613-.352.853-.624l.48.552c-.28.336-.632.592-1.056.768a3.507 3.507 0 0 1-1.38.264c-.648 0-1.225-.136-1.728-.408a3.038 3.038 0 0 1-1.165-1.152 3.267 3.267 0 0 1-.42-1.656c0-.616.133-1.168.397-1.656.272-.488.64-.868 1.103-1.14.472-.272 1-.408 1.585-.408a3.05 3.05 0 0 1 1.572.408c.464.272.828.652 1.092 1.14.264.48.396 1.032.396 1.656l-.012.264ZM73.28 6.372c-.609 0-1.12.196-1.537.588-.407.384-.64.888-.695 1.512h4.475c-.055-.624-.291-1.128-.707-1.512-.408-.392-.92-.588-1.536-.588Zm12.666-.732c.792 0 1.412.228 1.86.684.456.456.684 1.128.684 2.016V12h-.852V8.424c0-.656-.16-1.156-.48-1.5-.312-.344-.756-.516-1.332-.516-.656 0-1.172.204-1.548.612-.376.4-.564.956-.564 1.668V12h-.852V8.424c0-.656-.16-1.156-.48-1.5-.312-.344-.76-.516-1.344-.516-.648 0-1.164.204-1.548.612-.376.4-.564.956-.564 1.668V12h-.852V5.688h.816V6.84c.224-.384.536-.68.936-.888.4-.208.86-.312 1.38-.312.528 0 .984.112 1.368.336.392.224.684.556.876.996A2.43 2.43 0 0 1 84.447 6c.44-.24.94-.36 1.5-.36Zm10.041.048-3.156 7.068c-.256.592-.552 1.012-.888 1.26-.336.248-.74.372-1.212.372-.304 0-.588-.048-.852-.144a1.846 1.846 0 0 1-.684-.432l.396-.636c.32.32.704.48 1.152.48.288 0 .532-.08.732-.24.208-.16.4-.432.576-.816l.276-.612-2.82-6.3h.888l2.376 5.364 2.376-5.364h.84ZM111.215 5.754 105.972 2.5v-.001h-.001l-5.186 3.251V1.407L106 .83l5.215.576v4.347Zm-.004.576-2.085 1.293-3.141-1.967-.006.573 2.685 1.68-.463.288-2.216-1.388-.006.572 1.75 1.095-.413.291-.01.007-1.321-.82-.006.572.868.538-.884.558-5.167-3.233 5.175-3.275 5.24 3.216Zm.004 5.441L106 15.038l-5.215-3.267V7.025l5.193 3.255.008.59-3.562-2.233-.005.573 3.576 2.263.009.605-3.575-2.24-.005.573L106 12.675l3.606-2.272V7.957l1.609-1.011v4.825ZM106 0l-6 .662v11.58L106 16l6-3.759V.662L106 0Z" fill="#BDBDBD"/></svg>